<svg width="270" height="232" viewBox="0 0 270 232" fill="none" xmlns="http://www.w3.org/2000/svg">
<path d="M126.915 222.4C188.206 222.4 237.896 172.71 237.896 111.2C237.896 49.6898 188.206 0 126.915 0C65.6234 0 15.9336 49.6898 15.9336 111.2C15.9336 172.71 65.6234 222.4 126.915 222.4Z" fill="#EAEEF9"/>
<path d="M250.593 76.3959C255.55 76.3959 259.568 72.3777 259.568 67.4211C259.568 62.4644 255.55 58.4463 250.593 58.4463C245.636 58.4463 241.618 62.4644 241.618 67.4211C241.618 72.3777 245.636 76.3959 250.593 76.3959Z" fill="#EAEEF9"/>
<path d="M263.727 41.1528C267.112 41.1528 269.856 38.4087 269.856 35.0237C269.856 31.6386 267.112 28.8945 263.727 28.8945C260.342 28.8945 257.598 31.6386 257.598 35.0237C257.598 38.4087 260.342 41.1528 263.727 41.1528Z" fill="#EAEEF9"/>
<path d="M8.27269 82.7436C11.6577 82.7436 14.4018 79.9995 14.4018 76.6145C14.4018 73.2295 11.6577 70.4854 8.27269 70.4854C4.88766 70.4854 2.14355 73.2295 2.14355 76.6145C2.14355 79.9995 4.88766 82.7436 8.27269 82.7436Z" fill="#EAEEF9"/>
<path d="M165.003 46.9375C202.791 46.9375 233.273 74.4189 233.273 108.203C233.273 127.617 223.196 145.013 207.325 156.359V181.823C207.325 185.353 203.294 187.118 200.775 185.101L179.11 168.209C174.576 168.965 170.041 169.469 165.255 169.469C127.467 169.469 96.9854 141.988 96.9854 108.203C96.9854 74.4189 127.467 46.9375 165.003 46.9375Z" fill="#CBD4E0"/>
<g filter="url(#filter0_d_29222_1461)">
<path d="M98.246 43.9131C56.1758 43.9131 22.167 74.4199 22.167 111.986C22.167 133.669 33.5033 153.082 51.1375 165.436V193.674C51.1375 197.456 55.4201 199.725 58.4431 197.204L82.6271 178.547C87.6654 179.555 92.7038 180.059 97.994 180.059C140.064 180.059 174.073 149.553 174.073 111.986C174.073 74.4199 140.064 43.9131 98.246 43.9131Z" fill="url(#paint0_linear_29222_1461)"/>
</g>
<path d="M73.4324 114.758C78.0237 114.758 81.7457 111.033 81.7457 106.438C81.7457 101.843 78.0237 98.1182 73.4324 98.1182C68.8411 98.1182 65.1191 101.843 65.1191 106.438C65.1191 111.033 68.8411 114.758 73.4324 114.758Z" fill="#989FB0"/>
<path d="M120.54 114.758C125.131 114.758 128.853 111.033 128.853 106.438C128.853 101.843 125.131 98.1182 120.54 98.1182C115.949 98.1182 112.227 101.843 112.227 106.438C112.227 111.033 115.949 114.758 120.54 114.758Z" fill="#989FB0"/>
<path d="M107.441 141.231C106.685 141.231 105.929 140.979 105.425 140.222C103.41 137.449 100.387 135.936 96.8602 135.936C93.5853 135.936 90.3104 137.449 88.547 140.222C87.7912 141.483 86.2797 141.735 85.0201 140.726C83.7606 139.97 83.5086 138.457 84.5163 137.197C87.2874 133.163 92.0738 130.642 97.1122 130.642C102.151 130.642 106.685 133.163 109.708 137.197C110.464 138.457 110.212 139.97 109.204 140.726C108.448 141.231 107.945 141.231 107.441 141.231Z" fill="#989FB0"/>
<path d="M79.5058 37.5139C79.2021 37.5139 78.8983 37.5139 78.5946 37.5139C77.0759 36.9059 76.1646 35.3859 76.4684 33.8659L81.6321 17.1462C82.2396 15.6262 83.7583 14.7142 85.277 15.0182C86.7958 15.6262 87.707 17.1462 87.4033 18.6662L82.5433 35.3859C82.2396 36.6019 81.0246 37.5139 79.5058 37.5139Z" fill="#B5BCCE"/>
<path d="M66.7483 41.162C65.5333 41.162 64.3183 40.25 63.7108 39.034L55.8133 15.0184C55.2058 13.4984 56.1171 11.6744 57.6358 11.0664C59.1546 10.4584 60.977 11.3704 61.5845 12.8904L69.482 36.906C70.0895 38.426 69.1782 40.25 67.6595 40.858C67.3557 41.162 67.052 41.162 66.7483 41.162Z" fill="#B5BCCE"/>
<path d="M54.9029 46.9374C53.9917 46.9374 53.3842 46.6334 52.7767 46.0254L43.0568 36.6015C41.8418 35.3855 41.8418 33.5616 43.0568 32.3456C44.2717 31.1296 46.0942 31.1296 47.3092 32.3456L57.0291 41.7694C58.2441 42.9854 58.2441 44.8094 57.0291 46.0254C56.4216 46.6334 55.5104 46.9374 54.9029 46.9374Z" fill="#B5BCCE"/>
<defs>
<filter id="filter0_d_29222_1461" x="0.166992" y="32.9131" width="195.906" height="198.355" filterUnits="userSpaceOnUse" color-interpolation-filters="sRGB">
<feFlood flood-opacity="0" result="BackgroundImageFix"/>
<feColorMatrix in="SourceAlpha" type="matrix" values="0 0 0 0 0 0 0 0 0 0 0 0 0 0 0 0 0 0 127 0" result="hardAlpha"/>
<feOffset dy="11"/>
<feGaussianBlur stdDeviation="11"/>
<feColorMatrix type="matrix" values="0 0 0 0 0.397708 0 0 0 0 0.47749 0 0 0 0 0.575 0 0 0 0.27 0"/>
<feBlend mode="normal" in2="BackgroundImageFix" result="effect1_dropShadow_29222_1461"/>
<feBlend mode="normal" in="SourceGraphic" in2="effect1_dropShadow_29222_1461" result="shape"/>
</filter>
<linearGradient id="paint0_linear_29222_1461" x1="98.0705" y1="40.3427" x2="98.0705" y2="199.933" gradientUnits="userSpaceOnUse">
<stop stop-color="#FDFEFF"/>
<stop offset="0.9964" stop-color="#ECF0F5"/>
</linearGradient>
</defs>
</svg>
