<svg width="426" height="160" viewBox="0 0 426 160" fill="none" xmlns="http://www.w3.org/2000/svg">
<g filter="url(#filter0_d_29222_6438)">
<rect x="20" y="16" width="382" height="112" rx="16" fill="url(#paint0_linear_29222_6438)" shape-rendering="crispEdges"/>
<circle cx="63.5" cy="110.5" r="1.5" fill="white"/>
<circle cx="90.5" cy="108.5" r="0.5" fill="white"/>
<circle cx="40" cy="91" r="2" fill="white"/>
<circle cx="78.5" cy="72.5" r="31.5" fill="white"/>
<circle cx="109" cy="103" r="1" fill="white"/>
<circle cx="112" cy="81" r="1" fill="white"/>
<circle cx="36.5" cy="65.5" r="0.5" fill="white"/>
<path d="M85.8922 75.092C85.5468 75.4267 85.3882 75.9107 85.4668 76.3854L86.6522 82.9454C86.7522 83.5014 86.5175 84.064 86.0522 84.3854C85.5962 84.7187 84.9895 84.7587 84.4922 84.492L78.5868 81.412C78.3815 81.3027 78.1535 81.244 77.9202 81.2374H77.5588C77.4335 81.256 77.3108 81.296 77.1988 81.3574L71.2922 84.452C71.0002 84.5987 70.6695 84.6507 70.3455 84.5987C69.5562 84.4494 69.0295 83.6974 69.1588 82.904L70.3455 76.344C70.4242 75.8654 70.2655 75.3787 69.9202 75.0387L65.1055 70.372C64.7028 69.9814 64.5628 69.3947 64.7468 68.8654C64.9255 68.3374 65.3815 67.952 65.9322 67.8654L72.5588 66.904C73.0628 66.852 73.5055 66.5454 73.7322 66.092L76.6522 60.1054C76.7215 59.972 76.8108 59.8494 76.9188 59.7454L77.0388 59.652C77.1015 59.5827 77.1735 59.5254 77.2535 59.4787L77.3988 59.4254L77.6255 59.332H78.1868C78.6882 59.384 79.1295 59.684 79.3602 60.132L82.3188 66.092C82.5322 66.528 82.9468 66.8307 83.4255 66.904L90.0522 67.8654C90.6122 67.9454 91.0802 68.332 91.2655 68.8654C91.4402 69.4 91.2895 69.9867 90.8788 70.372L85.8922 75.092Z" fill="url(#paint1_linear_29222_6438)"/>
<circle cx="115.5" cy="44.5" r="3.5" fill="white"/>
<circle cx="83" cy="34" r="1" fill="white"/>
<circle cx="44.5" cy="36.5" r="4.5" fill="white"/>
<path d="M141.81 66.76C140.69 66.76 139.707 66.4867 138.86 65.94C138.02 65.3933 137.367 64.66 136.9 63.74C136.433 62.8133 136.2 61.7867 136.2 60.66V52.5H138.64V60.66C138.64 61.3267 138.763 61.94 139.01 62.5C139.263 63.0533 139.623 63.4967 140.09 63.83C140.563 64.1567 141.137 64.32 141.81 64.32C142.49 64.32 143.063 64.1567 143.53 63.83C143.997 63.4967 144.35 63.0533 144.59 62.5C144.837 61.94 144.96 61.3267 144.96 60.66V52.5H147.4V60.66C147.4 61.5067 147.267 62.3 147 63.04C146.733 63.7733 146.353 64.42 145.86 64.98C145.367 65.54 144.777 65.9767 144.09 66.29C143.41 66.6033 142.65 66.76 141.81 66.76ZM152.234 71.5H149.794V56.5H152.234V57.77C152.56 57.3167 152.96 56.95 153.434 56.67C153.914 56.3833 154.474 56.24 155.114 56.24C155.847 56.24 156.53 56.3767 157.164 56.65C157.797 56.9233 158.354 57.3033 158.834 57.79C159.32 58.27 159.697 58.8267 159.964 59.46C160.237 60.0933 160.374 60.7733 160.374 61.5C160.374 62.2267 160.237 62.91 159.964 63.55C159.697 64.19 159.32 64.7533 158.834 65.24C158.354 65.72 157.797 66.0967 157.164 66.37C156.53 66.6433 155.847 66.78 155.114 66.78C154.474 66.78 153.914 66.64 153.434 66.36C152.96 66.0733 152.56 65.7033 152.234 65.25V71.5ZM155.084 58.59C154.577 58.59 154.124 58.7233 153.724 58.99C153.324 59.25 153.01 59.6 152.784 60.04C152.557 60.48 152.444 60.9667 152.444 61.5C152.444 62.0333 152.557 62.5233 152.784 62.97C153.01 63.41 153.324 63.7633 153.724 64.03C154.124 64.29 154.577 64.42 155.084 64.42C155.597 64.42 156.067 64.29 156.494 64.03C156.92 63.77 157.26 63.42 157.514 62.98C157.767 62.5333 157.894 62.04 157.894 61.5C157.894 60.9667 157.767 60.48 157.514 60.04C157.26 59.6 156.92 59.25 156.494 58.99C156.074 58.7233 155.604 58.59 155.084 58.59ZM169.401 56.5H171.841V66.69C171.841 67.41 171.695 68.0633 171.401 68.65C171.108 69.2433 170.708 69.75 170.201 70.17C169.695 70.5967 169.115 70.9233 168.461 71.15C167.808 71.3833 167.121 71.5 166.401 71.5C165.701 71.5 165.028 71.3567 164.381 71.07C163.735 70.7833 163.161 70.39 162.661 69.89C162.168 69.3967 161.791 68.8333 161.531 68.2L163.761 67.19C163.895 67.5567 164.095 67.8767 164.361 68.15C164.635 68.43 164.948 68.6467 165.301 68.8C165.655 68.96 166.021 69.04 166.401 69.04C166.788 69.04 167.158 68.9867 167.511 68.88C167.871 68.7733 168.195 68.6167 168.481 68.41C168.768 68.21 168.991 67.9633 169.151 67.67C169.318 67.3833 169.401 67.0567 169.401 66.69V65.28C169.088 65.72 168.695 66.0767 168.221 66.35C167.748 66.6233 167.201 66.76 166.581 66.76C165.861 66.76 165.188 66.6233 164.561 66.35C163.935 66.0767 163.381 65.7 162.901 65.22C162.428 64.7333 162.055 64.1733 161.781 63.54C161.515 62.9067 161.381 62.2267 161.381 61.5C161.381 60.7733 161.515 60.0933 161.781 59.46C162.055 58.8267 162.428 58.27 162.901 57.79C163.381 57.3033 163.935 56.9233 164.561 56.65C165.188 56.3767 165.861 56.24 166.581 56.24C167.201 56.24 167.748 56.3767 168.221 56.65C168.695 56.9167 169.088 57.27 169.401 57.71V56.5ZM166.611 64.41C167.125 64.41 167.578 64.28 167.971 64.02C168.371 63.7533 168.685 63.4 168.911 62.96C169.138 62.5133 169.251 62.0267 169.251 61.5C169.251 60.9667 169.135 60.48 168.901 60.04C168.675 59.6 168.361 59.2467 167.961 58.98C167.568 58.7133 167.118 58.58 166.611 58.58C166.111 58.58 165.655 58.7133 165.241 58.98C164.828 59.24 164.498 59.59 164.251 60.03C164.005 60.47 163.881 60.96 163.881 61.5C163.881 62.04 164.005 62.53 164.251 62.97C164.498 63.41 164.828 63.76 165.241 64.02C165.655 64.28 166.111 64.41 166.611 64.41ZM174.257 66.5L174.247 56.5H176.687L176.697 57.39C177.037 57.03 177.444 56.7467 177.917 56.54C178.39 56.3267 178.9 56.22 179.447 56.22C179.814 56.22 180.18 56.2733 180.547 56.38L179.587 58.84C179.334 58.74 179.08 58.69 178.827 58.69C178.434 58.69 178.074 58.7867 177.747 58.98C177.427 59.1667 177.17 59.4233 176.977 59.75C176.79 60.07 176.697 60.4267 176.697 60.82V66.5H174.257ZM188.74 56.5H191.18V66.5H188.74L188.63 65.26C188.357 65.7067 187.993 66.07 187.54 66.35C187.093 66.6233 186.563 66.76 185.95 66.76C185.21 66.76 184.517 66.62 183.87 66.34C183.223 66.06 182.653 65.6733 182.16 65.18C181.673 64.6867 181.29 64.1167 181.01 63.47C180.737 62.8233 180.6 62.13 180.6 61.39C180.6 60.6767 180.73 60.0067 180.99 59.38C181.257 58.7533 181.627 58.2033 182.1 57.73C182.573 57.2567 183.12 56.8867 183.74 56.62C184.36 56.3533 185.027 56.22 185.74 56.22C186.4 56.22 186.99 56.3667 187.51 56.66C188.037 56.9533 188.483 57.3267 188.85 57.78L188.74 56.5ZM185.89 64.41C186.41 64.41 186.87 64.28 187.27 64.02C187.67 63.76 187.983 63.41 188.21 62.97C188.437 62.5233 188.55 62.0333 188.55 61.5C188.55 60.96 188.437 60.47 188.21 60.03C187.983 59.5833 187.667 59.23 187.26 58.97C186.86 58.71 186.403 58.58 185.89 58.58C185.377 58.58 184.907 58.7133 184.48 58.98C184.06 59.24 183.723 59.59 183.47 60.03C183.223 60.47 183.1 60.96 183.1 61.5C183.1 62.04 183.227 62.53 183.48 62.97C183.733 63.41 184.07 63.76 184.49 64.02C184.917 64.28 185.383 64.41 185.89 64.41ZM200.537 51.5H202.977V66.5H200.537V65.25C200.217 65.6967 199.814 66.06 199.327 66.34C198.841 66.62 198.277 66.76 197.637 66.76C196.911 66.76 196.231 66.6233 195.597 66.35C194.964 66.0767 194.404 65.7 193.917 65.22C193.437 64.7333 193.061 64.1733 192.787 63.54C192.514 62.9067 192.377 62.2267 192.377 61.5C192.377 60.7733 192.514 60.0933 192.787 59.46C193.061 58.8267 193.437 58.27 193.917 57.79C194.404 57.3033 194.964 56.9233 195.597 56.65C196.231 56.3767 196.911 56.24 197.637 56.24C198.277 56.24 198.841 56.38 199.327 56.66C199.814 56.9333 200.217 57.2967 200.537 57.75V51.5ZM197.667 64.41C198.187 64.41 198.647 64.28 199.047 64.02C199.447 63.76 199.761 63.41 199.987 62.97C200.214 62.5233 200.327 62.0333 200.327 61.5C200.327 60.96 200.214 60.47 199.987 60.03C199.761 59.5833 199.444 59.23 199.037 58.97C198.637 58.71 198.181 58.58 197.667 58.58C197.154 58.58 196.684 58.7133 196.257 58.98C195.837 59.24 195.501 59.59 195.247 60.03C195.001 60.47 194.877 60.96 194.877 61.5C194.877 62.04 195.004 62.53 195.257 62.97C195.511 63.41 195.847 63.76 196.267 64.02C196.694 64.28 197.161 64.41 197.667 64.41ZM209.623 66.76C208.703 66.76 207.863 66.5233 207.103 66.05C206.35 65.5767 205.747 64.94 205.293 64.14C204.847 63.34 204.623 62.4567 204.623 61.49C204.623 60.7633 204.753 60.0833 205.013 59.45C205.273 58.81 205.63 58.25 206.083 57.77C206.543 57.2833 207.077 56.9033 207.683 56.63C208.29 56.3567 208.937 56.22 209.623 56.22C210.403 56.22 211.117 56.3867 211.763 56.72C212.417 57.0467 212.97 57.4967 213.423 58.07C213.877 58.6433 214.207 59.2967 214.413 60.03C214.62 60.7633 214.667 61.53 214.553 62.33H207.243C207.337 62.7033 207.49 63.04 207.703 63.34C207.917 63.6333 208.187 63.87 208.513 64.05C208.84 64.2233 209.21 64.3133 209.623 64.32C210.05 64.3267 210.437 64.2267 210.783 64.02C211.137 63.8067 211.43 63.52 211.663 63.16L214.153 63.74C213.747 64.6267 213.14 65.3533 212.333 65.92C211.527 66.48 210.623 66.76 209.623 66.76ZM207.163 60.5H212.083C212.01 60.1 211.853 59.74 211.613 59.42C211.38 59.0933 211.09 58.8333 210.743 58.64C210.397 58.4467 210.023 58.35 209.623 58.35C209.223 58.35 208.853 58.4467 208.513 58.64C208.173 58.8267 207.883 59.0833 207.643 59.41C207.41 59.73 207.25 60.0933 207.163 60.5ZM226.58 58.94H224.64V66.5H222.2V58.94H220.72V56.5H222.2V53.36H224.64V56.5H226.58V58.94ZM232.553 66.76C231.633 66.76 230.793 66.5233 230.033 66.05C229.28 65.5767 228.676 64.9433 228.223 64.15C227.776 63.35 227.553 62.4667 227.553 61.5C227.553 60.7667 227.683 60.0833 227.943 59.45C228.203 58.81 228.56 58.25 229.013 57.77C229.473 57.2833 230.006 56.9033 230.613 56.63C231.22 56.3567 231.866 56.22 232.553 56.22C233.473 56.22 234.31 56.4567 235.063 56.93C235.823 57.4033 236.426 58.04 236.873 58.84C237.326 59.64 237.553 60.5267 237.553 61.5C237.553 62.2267 237.423 62.9067 237.163 63.54C236.903 64.1733 236.543 64.7333 236.083 65.22C235.63 65.7 235.1 66.0767 234.493 66.35C233.893 66.6233 233.246 66.76 232.553 66.76ZM232.553 64.32C233.04 64.32 233.476 64.19 233.863 63.93C234.25 63.67 234.553 63.3267 234.773 62.9C235 62.4733 235.113 62.0067 235.113 61.5C235.113 60.98 234.996 60.5067 234.763 60.08C234.536 59.6467 234.226 59.3033 233.833 59.05C233.446 58.79 233.02 58.66 232.553 58.66C232.073 58.66 231.64 58.79 231.253 59.05C230.866 59.31 230.56 59.6567 230.333 60.09C230.106 60.5233 229.993 60.9933 229.993 61.5C229.993 62.0267 230.11 62.5033 230.343 62.93C230.576 63.3567 230.886 63.6967 231.273 63.95C231.666 64.1967 232.093 64.32 232.553 64.32ZM244.149 66.5V52.5H249.149C249.909 52.5 250.596 52.69 251.209 53.07C251.829 53.45 252.319 53.96 252.679 54.6C253.039 55.24 253.219 55.9433 253.219 56.71C253.219 57.4967 253.033 58.21 252.659 58.85C252.293 59.4833 251.799 59.99 251.179 60.37C250.559 60.7433 249.883 60.93 249.149 60.93H246.589V66.5H244.149ZM246.589 58.49H248.889C249.236 58.49 249.553 58.4033 249.839 58.23C250.126 58.0567 250.353 57.8233 250.519 57.53C250.693 57.2367 250.779 56.91 250.779 56.55C250.779 56.1833 250.693 55.8533 250.519 55.56C250.353 55.2667 250.126 55.0333 249.839 54.86C249.553 54.6867 249.236 54.6 248.889 54.6H246.589V58.49ZM255.048 66.5V52.5H260.418C261.178 52.5 261.864 52.69 262.478 53.07C263.091 53.45 263.578 53.96 263.938 54.6C264.298 55.2333 264.478 55.9367 264.478 56.71C264.478 57.3433 264.361 57.9267 264.128 58.46C263.901 58.9867 263.581 59.4433 263.168 59.83C262.761 60.2167 262.291 60.51 261.758 60.71L265.108 66.5H262.298L259.058 60.93H257.488V66.5H255.048ZM257.488 58.49H260.138C260.484 58.49 260.801 58.4033 261.088 58.23C261.374 58.0567 261.604 57.8233 261.778 57.53C261.951 57.2367 262.038 56.91 262.038 56.55C262.038 56.1833 261.951 55.8533 261.778 55.56C261.604 55.2667 261.374 55.0333 261.088 54.86C260.801 54.6867 260.484 54.6 260.138 54.6H257.488V58.49ZM273.052 66.76C272.105 66.76 271.215 66.5733 270.382 66.2C269.548 65.82 268.815 65.2967 268.182 64.63C267.548 63.9633 267.052 63.1933 266.692 62.32C266.332 61.44 266.152 60.5 266.152 59.5C266.152 58.5 266.332 57.5633 266.692 56.69C267.052 55.81 267.548 55.0367 268.182 54.37C268.815 53.7033 269.548 53.1833 270.382 52.81C271.215 52.43 272.105 52.24 273.052 52.24C274.005 52.24 274.898 52.43 275.732 52.81C276.565 53.1833 277.298 53.7033 277.932 54.37C278.565 55.0367 279.058 55.81 279.412 56.69C279.772 57.5633 279.952 58.5 279.952 59.5C279.952 60.5 279.772 61.44 279.412 62.32C279.058 63.1933 278.565 63.9633 277.932 64.63C277.298 65.2967 276.565 65.82 275.732 66.2C274.898 66.5733 274.005 66.76 273.052 66.76ZM273.052 64.32C273.665 64.32 274.242 64.1933 274.782 63.94C275.322 63.6867 275.795 63.34 276.202 62.9C276.615 62.4533 276.935 61.94 277.162 61.36C277.395 60.78 277.512 60.16 277.512 59.5C277.512 58.84 277.395 58.22 277.162 57.64C276.928 57.0533 276.605 56.54 276.192 56.1C275.785 55.66 275.312 55.3133 274.772 55.06C274.238 54.8067 273.665 54.68 273.052 54.68C272.438 54.68 271.862 54.8067 271.322 55.06C270.782 55.3133 270.305 55.6633 269.892 56.11C269.485 56.55 269.165 57.06 268.932 57.64C268.705 58.22 268.592 58.84 268.592 59.5C268.592 60.1667 268.708 60.79 268.942 61.37C269.175 61.95 269.495 62.4633 269.902 62.91C270.315 63.35 270.788 63.6967 271.322 63.95C271.862 64.1967 272.438 64.32 273.052 64.32ZM281.762 62.3V52.5H283.822V62.3H281.762ZM282.802 66.76C282.449 66.76 282.149 66.6367 281.902 66.39C281.662 66.1433 281.542 65.8433 281.542 65.49C281.542 65.1433 281.662 64.85 281.902 64.61C282.149 64.37 282.449 64.25 282.802 64.25C283.142 64.25 283.432 64.37 283.672 64.61C283.912 64.85 284.032 65.1433 284.032 65.49C284.032 65.8433 283.912 66.1433 283.672 66.39C283.432 66.6367 283.142 66.76 282.802 66.76Z" fill="white"/>
<path d="M135.72 95.5V87.1H140.874V88.108H136.728V90.496H140.124V91.504H136.728V94.492H140.874V95.5H135.72ZM147.693 91.768V95.5H146.685V91.99C146.685 91.686 146.611 91.41 146.463 91.162C146.315 90.914 146.117 90.718 145.869 90.574C145.621 90.426 145.345 90.352 145.041 90.352C144.741 90.352 144.465 90.426 144.213 90.574C143.965 90.718 143.767 90.914 143.619 91.162C143.471 91.41 143.397 91.686 143.397 91.99V95.5H142.389V89.5H143.397V90.25C143.609 89.97 143.877 89.748 144.201 89.584C144.525 89.416 144.877 89.332 145.257 89.332C145.705 89.332 146.113 89.442 146.481 89.662C146.853 89.878 147.147 90.17 147.363 90.538C147.583 90.906 147.693 91.316 147.693 91.768ZM147.998 98.5V97.492C148.278 97.492 148.528 97.43 148.748 97.306C148.972 97.182 149.148 97.01 149.276 96.79C149.404 96.574 149.468 96.332 149.468 96.064V89.5H150.476V96.064C150.476 96.512 150.368 96.92 150.152 97.288C149.936 97.656 149.64 97.95 149.264 98.17C148.892 98.39 148.47 98.5 147.998 98.5ZM149.984 88.522C149.824 88.522 149.69 88.47 149.582 88.366C149.474 88.262 149.42 88.132 149.42 87.976C149.42 87.82 149.474 87.69 149.582 87.586C149.69 87.482 149.822 87.43 149.978 87.43C150.134 87.43 150.266 87.482 150.374 87.586C150.482 87.69 150.536 87.82 150.536 87.976C150.536 88.132 150.482 88.262 150.374 88.366C150.27 88.47 150.14 88.522 149.984 88.522ZM154.675 95.656C154.123 95.656 153.619 95.514 153.163 95.23C152.711 94.946 152.349 94.566 152.077 94.09C151.809 93.61 151.675 93.08 151.675 92.5C151.675 92.06 151.753 91.65 151.909 91.27C152.065 90.886 152.279 90.55 152.551 90.262C152.827 89.97 153.147 89.742 153.511 89.578C153.875 89.414 154.263 89.332 154.675 89.332C155.227 89.332 155.729 89.474 156.181 89.758C156.637 90.042 156.999 90.424 157.267 90.904C157.539 91.384 157.675 91.916 157.675 92.5C157.675 92.936 157.597 93.344 157.441 93.724C157.285 94.104 157.069 94.44 156.793 94.732C156.521 95.02 156.203 95.246 155.839 95.41C155.479 95.574 155.091 95.656 154.675 95.656ZM154.675 94.648C155.051 94.648 155.389 94.55 155.689 94.354C155.993 94.154 156.231 93.892 156.403 93.568C156.579 93.24 156.667 92.884 156.667 92.5C156.667 92.108 156.577 91.748 156.397 91.42C156.221 91.092 155.983 90.83 155.683 90.634C155.383 90.438 155.047 90.34 154.675 90.34C154.299 90.34 153.961 90.44 153.661 90.64C153.361 90.836 153.123 91.098 152.947 91.426C152.771 91.754 152.683 92.112 152.683 92.5C152.683 92.9 152.773 93.264 152.953 93.592C153.133 93.916 153.375 94.174 153.679 94.366C153.983 94.554 154.315 94.648 154.675 94.648ZM162.65 89.5H163.718L160.436 98.5H159.368L160.454 95.5L158.3 89.5H159.404L160.958 94.114L162.65 89.5ZM173.021 89.5H174.029V95.5H173.021L172.979 94.486C172.791 94.834 172.531 95.116 172.199 95.332C171.871 95.548 171.479 95.656 171.023 95.656C170.583 95.656 170.171 95.574 169.787 95.41C169.403 95.242 169.063 95.012 168.767 94.72C168.475 94.424 168.247 94.084 168.083 93.7C167.919 93.316 167.837 92.902 167.837 92.458C167.837 92.03 167.917 91.626 168.077 91.246C168.237 90.866 168.459 90.534 168.743 90.25C169.031 89.962 169.363 89.738 169.739 89.578C170.115 89.414 170.519 89.332 170.951 89.332C171.423 89.332 171.837 89.444 172.193 89.668C172.549 89.888 172.837 90.174 173.057 90.526L173.021 89.5ZM171.005 94.678C171.401 94.678 171.743 94.582 172.031 94.39C172.323 94.194 172.547 93.93 172.703 93.598C172.863 93.266 172.943 92.9 172.943 92.5C172.943 92.092 172.863 91.724 172.703 91.396C172.543 91.064 172.317 90.802 172.025 90.61C171.737 90.414 171.397 90.316 171.005 90.316C170.609 90.316 170.249 90.414 169.925 90.61C169.601 90.806 169.343 91.07 169.151 91.402C168.963 91.73 168.869 92.096 168.869 92.5C168.869 92.904 168.967 93.272 169.163 93.604C169.359 93.932 169.619 94.194 169.943 94.39C170.267 94.582 170.621 94.678 171.005 94.678ZM175.499 95.5V86.5H176.507V95.5H175.499ZM178.148 95.5V86.5H179.156V95.5H178.148ZM186.916 89.332C187.5 89.332 188.03 89.474 188.506 89.758C188.986 90.042 189.368 90.424 189.652 90.904C189.936 91.38 190.078 91.91 190.078 92.494C190.078 92.93 189.996 93.34 189.832 93.724C189.668 94.104 189.44 94.44 189.148 94.732C188.86 95.02 188.524 95.246 188.14 95.41C187.76 95.574 187.352 95.656 186.916 95.656C186.452 95.656 186.048 95.548 185.704 95.332C185.364 95.112 185.092 94.826 184.888 94.474V95.5H183.88V86.5H184.888V90.514C185.092 90.162 185.364 89.878 185.704 89.662C186.048 89.442 186.452 89.332 186.916 89.332ZM186.904 94.672C187.3 94.672 187.66 94.574 187.984 94.378C188.308 94.182 188.566 93.92 188.758 93.592C188.95 93.26 189.046 92.894 189.046 92.494C189.046 92.086 188.948 91.718 188.752 91.39C188.556 91.058 188.296 90.796 187.972 90.604C187.648 90.408 187.292 90.31 186.904 90.31C186.512 90.31 186.17 90.408 185.878 90.604C185.59 90.8 185.366 91.064 185.206 91.396C185.05 91.728 184.972 92.094 184.972 92.494C184.972 92.898 185.05 93.266 185.206 93.598C185.366 93.926 185.592 94.188 185.884 94.384C186.176 94.576 186.516 94.672 186.904 94.672ZM193.88 95.656C193.328 95.656 192.824 95.514 192.368 95.23C191.916 94.946 191.554 94.566 191.282 94.09C191.014 93.61 190.88 93.08 190.88 92.5C190.88 92.06 190.958 91.65 191.114 91.27C191.27 90.886 191.484 90.55 191.756 90.262C192.032 89.97 192.352 89.742 192.716 89.578C193.08 89.414 193.468 89.332 193.88 89.332C194.332 89.332 194.746 89.424 195.122 89.608C195.502 89.788 195.826 90.04 196.094 90.364C196.366 90.688 196.568 91.064 196.7 91.492C196.836 91.92 196.886 92.378 196.85 92.866H191.954C192.002 93.206 192.114 93.51 192.29 93.778C192.466 94.042 192.69 94.252 192.962 94.408C193.238 94.564 193.544 94.644 193.88 94.648C194.24 94.648 194.566 94.556 194.858 94.372C195.15 94.184 195.386 93.928 195.566 93.604L196.592 93.844C196.352 94.376 195.99 94.812 195.506 95.152C195.022 95.488 194.48 95.656 193.88 95.656ZM191.924 92.074H195.836C195.804 91.738 195.696 91.432 195.512 91.156C195.328 90.876 195.094 90.652 194.81 90.484C194.526 90.316 194.216 90.232 193.88 90.232C193.544 90.232 193.236 90.314 192.956 90.478C192.676 90.642 192.444 90.864 192.26 91.144C192.08 91.42 191.968 91.73 191.924 92.074ZM203.365 91.768V95.5H202.357V91.99C202.357 91.686 202.283 91.41 202.135 91.162C201.987 90.914 201.789 90.718 201.541 90.574C201.293 90.426 201.017 90.352 200.713 90.352C200.413 90.352 200.137 90.426 199.885 90.574C199.637 90.718 199.439 90.914 199.291 91.162C199.143 91.41 199.069 91.686 199.069 91.99V95.5H198.061V89.5H199.069V90.25C199.281 89.97 199.549 89.748 199.873 89.584C200.197 89.416 200.549 89.332 200.929 89.332C201.377 89.332 201.785 89.442 202.153 89.662C202.525 89.878 202.819 90.17 203.035 90.538C203.255 90.906 203.365 91.316 203.365 91.768ZM207.288 95.656C206.736 95.656 206.232 95.514 205.776 95.23C205.324 94.946 204.962 94.566 204.69 94.09C204.422 93.61 204.288 93.08 204.288 92.5C204.288 92.06 204.366 91.65 204.522 91.27C204.678 90.886 204.892 90.55 205.164 90.262C205.44 89.97 205.76 89.742 206.124 89.578C206.488 89.414 206.876 89.332 207.288 89.332C207.74 89.332 208.154 89.424 208.53 89.608C208.91 89.788 209.234 90.04 209.502 90.364C209.774 90.688 209.976 91.064 210.108 91.492C210.244 91.92 210.294 92.378 210.258 92.866H205.362C205.41 93.206 205.522 93.51 205.698 93.778C205.874 94.042 206.098 94.252 206.37 94.408C206.646 94.564 206.952 94.644 207.288 94.648C207.648 94.648 207.974 94.556 208.266 94.372C208.558 94.184 208.794 93.928 208.974 93.604L210 93.844C209.76 94.376 209.398 94.812 208.914 95.152C208.43 95.488 207.888 95.656 207.288 95.656ZM205.332 92.074H209.244C209.212 91.738 209.104 91.432 208.92 91.156C208.736 90.876 208.502 90.652 208.218 90.484C207.934 90.316 207.624 90.232 207.288 90.232C206.952 90.232 206.644 90.314 206.364 90.478C206.084 90.642 205.852 90.864 205.668 91.144C205.488 91.42 205.376 91.73 205.332 92.074ZM212.913 88.018V89.5H214.671V90.508H212.913V95.5H211.905V90.508H211.131V89.5H211.905V88.018C211.905 87.71 211.979 87.432 212.127 87.184C212.279 86.932 212.481 86.732 212.733 86.584C212.989 86.432 213.269 86.356 213.573 86.356C213.797 86.356 214.015 86.402 214.227 86.494C214.439 86.582 214.627 86.714 214.791 86.89L214.071 87.604C214.015 87.528 213.941 87.47 213.849 87.43C213.761 87.386 213.669 87.364 213.573 87.364C213.393 87.364 213.237 87.428 213.105 87.556C212.977 87.684 212.913 87.838 212.913 88.018ZM215.794 89.5H216.802V95.5H215.794V89.5ZM216.31 88.522C216.15 88.522 216.016 88.47 215.908 88.366C215.8 88.262 215.746 88.132 215.746 87.976C215.746 87.82 215.8 87.69 215.908 87.586C216.016 87.482 216.148 87.43 216.304 87.43C216.46 87.43 216.592 87.482 216.7 87.586C216.808 87.69 216.862 87.82 216.862 87.976C216.862 88.132 216.808 88.262 216.7 88.366C216.596 88.47 216.466 88.522 216.31 88.522ZM221.551 90.508H220.189L220.183 95.5H219.175L219.181 90.508H218.149V89.5H219.181L219.175 87.616H220.183L220.189 89.5H221.551V90.508ZM224.598 95.614C224.274 95.602 223.958 95.542 223.65 95.434C223.346 95.322 223.078 95.172 222.846 94.984C222.618 94.792 222.452 94.572 222.348 94.324L223.212 93.952C223.272 94.088 223.38 94.216 223.536 94.336C223.692 94.456 223.872 94.552 224.076 94.624C224.28 94.696 224.486 94.732 224.694 94.732C224.914 94.732 225.12 94.698 225.312 94.63C225.504 94.562 225.66 94.462 225.78 94.33C225.904 94.194 225.966 94.032 225.966 93.844C225.966 93.644 225.898 93.488 225.762 93.376C225.63 93.26 225.462 93.17 225.258 93.106C225.058 93.038 224.854 92.974 224.646 92.914C224.234 92.81 223.866 92.686 223.542 92.542C223.218 92.394 222.962 92.208 222.774 91.984C222.59 91.756 222.498 91.466 222.498 91.114C222.498 90.742 222.6 90.42 222.804 90.148C223.012 89.876 223.284 89.666 223.62 89.518C223.956 89.37 224.316 89.296 224.7 89.296C225.184 89.296 225.626 89.4 226.026 89.608C226.426 89.816 226.724 90.098 226.92 90.454L226.11 90.928C226.042 90.784 225.938 90.658 225.798 90.55C225.658 90.438 225.498 90.35 225.318 90.286C225.138 90.222 224.954 90.188 224.766 90.184C224.534 90.176 224.316 90.206 224.112 90.274C223.912 90.342 223.75 90.446 223.626 90.586C223.506 90.722 223.446 90.892 223.446 91.096C223.446 91.296 223.51 91.448 223.638 91.552C223.77 91.656 223.94 91.74 224.148 91.804C224.36 91.864 224.59 91.934 224.838 92.014C225.202 92.13 225.542 92.264 225.858 92.416C226.174 92.568 226.428 92.758 226.62 92.986C226.816 93.214 226.912 93.496 226.908 93.832C226.908 94.2 226.798 94.522 226.578 94.798C226.358 95.07 226.072 95.278 225.72 95.422C225.372 95.566 224.998 95.63 224.598 95.614ZM233.889 95.5H232.869L230.859 89.5H231.843L233.391 94.078L234.921 89.5H235.959L237.495 94.078L239.025 89.5H240.021L238.011 95.5H236.985L235.431 90.88L233.889 95.5ZM241.193 89.5H242.201V95.5H241.193V89.5ZM241.709 88.522C241.549 88.522 241.415 88.47 241.307 88.366C241.199 88.262 241.145 88.132 241.145 87.976C241.145 87.82 241.199 87.69 241.307 87.586C241.415 87.482 241.547 87.43 241.703 87.43C241.859 87.43 241.991 87.482 242.099 87.586C242.207 87.69 242.261 87.82 242.261 87.976C242.261 88.132 242.207 88.262 242.099 88.366C241.995 88.47 241.865 88.522 241.709 88.522ZM246.95 90.508H245.588L245.582 95.5H244.574L244.58 90.508H243.548V89.5H244.58L244.574 87.616H245.582L245.588 89.5H246.95V90.508ZM253.529 91.768V95.5H252.521V91.99C252.521 91.686 252.447 91.41 252.299 91.162C252.151 90.914 251.953 90.718 251.705 90.574C251.457 90.426 251.181 90.352 250.877 90.352C250.577 90.352 250.301 90.426 250.049 90.574C249.801 90.718 249.603 90.914 249.455 91.162C249.307 91.41 249.233 91.686 249.233 91.99V95.5H248.225V86.5H249.233V90.25C249.445 89.97 249.713 89.748 250.037 89.584C250.361 89.416 250.713 89.332 251.093 89.332C251.541 89.332 251.949 89.442 252.317 89.662C252.689 89.878 252.983 90.17 253.199 90.538C253.419 90.906 253.529 91.316 253.529 91.768ZM257.452 95.656C256.9 95.656 256.396 95.514 255.94 95.23C255.488 94.946 255.126 94.566 254.854 94.09C254.586 93.61 254.452 93.08 254.452 92.5C254.452 92.06 254.53 91.65 254.686 91.27C254.842 90.886 255.056 90.55 255.328 90.262C255.604 89.97 255.924 89.742 256.288 89.578C256.652 89.414 257.04 89.332 257.452 89.332C258.004 89.332 258.506 89.474 258.958 89.758C259.414 90.042 259.776 90.424 260.044 90.904C260.316 91.384 260.452 91.916 260.452 92.5C260.452 92.936 260.374 93.344 260.218 93.724C260.062 94.104 259.846 94.44 259.57 94.732C259.298 95.02 258.98 95.246 258.616 95.41C258.256 95.574 257.868 95.656 257.452 95.656ZM257.452 94.648C257.828 94.648 258.166 94.55 258.466 94.354C258.77 94.154 259.008 93.892 259.18 93.568C259.356 93.24 259.444 92.884 259.444 92.5C259.444 92.108 259.354 91.748 259.174 91.42C258.998 91.092 258.76 90.83 258.46 90.634C258.16 90.438 257.824 90.34 257.452 90.34C257.076 90.34 256.738 90.44 256.438 90.64C256.138 90.836 255.9 91.098 255.724 91.426C255.548 91.754 255.46 92.112 255.46 92.5C255.46 92.9 255.55 93.264 255.73 93.592C255.91 93.916 256.152 94.174 256.456 94.366C256.76 94.554 257.092 94.648 257.452 94.648ZM261.323 93.22V89.5H262.331V92.998C262.331 93.302 262.405 93.578 262.553 93.826C262.701 94.074 262.899 94.272 263.147 94.42C263.399 94.564 263.675 94.636 263.975 94.636C264.279 94.636 264.553 94.564 264.797 94.42C265.045 94.272 265.243 94.074 265.391 93.826C265.539 93.578 265.613 93.302 265.613 92.998V89.5H266.621L266.627 95.5H265.619L265.613 94.738C265.401 95.018 265.133 95.242 264.809 95.41C264.485 95.574 264.135 95.656 263.759 95.656C263.311 95.656 262.901 95.548 262.529 95.332C262.161 95.112 261.867 94.818 261.647 94.45C261.431 94.082 261.323 93.672 261.323 93.22ZM271.141 90.508H269.779L269.773 95.5H268.765L268.771 90.508H267.739V89.5H268.771L268.765 87.616H269.773L269.779 89.5H271.141V90.508ZM275.499 95.5V89.5H276.507V90.25C276.719 89.97 276.987 89.748 277.311 89.584C277.635 89.416 277.987 89.332 278.367 89.332C278.599 89.332 278.823 89.362 279.039 89.422L278.631 90.43C278.467 90.378 278.307 90.352 278.151 90.352C277.851 90.352 277.575 90.426 277.323 90.574C277.075 90.718 276.877 90.914 276.729 91.162C276.581 91.41 276.507 91.686 276.507 91.99V95.5H275.499ZM282.312 95.656C281.76 95.656 281.256 95.514 280.8 95.23C280.348 94.946 279.986 94.566 279.714 94.09C279.446 93.61 279.312 93.08 279.312 92.5C279.312 92.06 279.39 91.65 279.546 91.27C279.702 90.886 279.916 90.55 280.188 90.262C280.464 89.97 280.784 89.742 281.148 89.578C281.512 89.414 281.9 89.332 282.312 89.332C282.764 89.332 283.178 89.424 283.554 89.608C283.934 89.788 284.258 90.04 284.526 90.364C284.798 90.688 285 91.064 285.132 91.492C285.268 91.92 285.318 92.378 285.282 92.866H280.386C280.434 93.206 280.546 93.51 280.722 93.778C280.898 94.042 281.122 94.252 281.394 94.408C281.67 94.564 281.976 94.644 282.312 94.648C282.672 94.648 282.998 94.556 283.29 94.372C283.582 94.184 283.818 93.928 283.998 93.604L285.024 93.844C284.784 94.376 284.422 94.812 283.938 95.152C283.454 95.488 282.912 95.656 282.312 95.656ZM280.356 92.074H284.268C284.236 91.738 284.128 91.432 283.944 91.156C283.76 90.876 283.526 90.652 283.242 90.484C282.958 90.316 282.648 90.232 282.312 90.232C281.976 90.232 281.668 90.314 281.388 90.478C281.108 90.642 280.876 90.864 280.692 91.144C280.512 91.42 280.4 91.73 280.356 92.074ZM288.346 95.614C288.022 95.602 287.706 95.542 287.398 95.434C287.094 95.322 286.826 95.172 286.594 94.984C286.366 94.792 286.2 94.572 286.096 94.324L286.96 93.952C287.02 94.088 287.128 94.216 287.284 94.336C287.44 94.456 287.62 94.552 287.824 94.624C288.028 94.696 288.234 94.732 288.442 94.732C288.662 94.732 288.868 94.698 289.06 94.63C289.252 94.562 289.408 94.462 289.528 94.33C289.652 94.194 289.714 94.032 289.714 93.844C289.714 93.644 289.646 93.488 289.51 93.376C289.378 93.26 289.21 93.17 289.006 93.106C288.806 93.038 288.602 92.974 288.394 92.914C287.982 92.81 287.614 92.686 287.29 92.542C286.966 92.394 286.71 92.208 286.522 91.984C286.338 91.756 286.246 91.466 286.246 91.114C286.246 90.742 286.348 90.42 286.552 90.148C286.76 89.876 287.032 89.666 287.368 89.518C287.704 89.37 288.064 89.296 288.448 89.296C288.932 89.296 289.374 89.4 289.774 89.608C290.174 89.816 290.472 90.098 290.668 90.454L289.858 90.928C289.79 90.784 289.686 90.658 289.546 90.55C289.406 90.438 289.246 90.35 289.066 90.286C288.886 90.222 288.702 90.188 288.514 90.184C288.282 90.176 288.064 90.206 287.86 90.274C287.66 90.342 287.498 90.446 287.374 90.586C287.254 90.722 287.194 90.892 287.194 91.096C287.194 91.296 287.258 91.448 287.386 91.552C287.518 91.656 287.688 91.74 287.896 91.804C288.108 91.864 288.338 91.934 288.586 92.014C288.95 92.13 289.29 92.264 289.606 92.416C289.922 92.568 290.176 92.758 290.368 92.986C290.564 93.214 290.66 93.496 290.656 93.832C290.656 94.2 290.546 94.522 290.326 94.798C290.106 95.07 289.82 95.278 289.468 95.422C289.12 95.566 288.746 95.63 288.346 95.614ZM294.992 90.508H293.63L293.624 95.5H292.616L292.622 90.508H291.59V89.5H292.622L292.616 87.616H293.624L293.63 89.5H294.992V90.508ZM296.268 95.5V89.5H297.276V90.25C297.488 89.97 297.756 89.748 298.08 89.584C298.404 89.416 298.756 89.332 299.136 89.332C299.368 89.332 299.592 89.362 299.808 89.422L299.4 90.43C299.236 90.378 299.076 90.352 298.92 90.352C298.62 90.352 298.344 90.426 298.092 90.574C297.844 90.718 297.646 90.914 297.498 91.162C297.35 91.41 297.276 91.686 297.276 91.99V95.5H296.268ZM300.745 89.5H301.753V95.5H300.745V89.5ZM301.261 88.522C301.101 88.522 300.967 88.47 300.859 88.366C300.751 88.262 300.697 88.132 300.697 87.976C300.697 87.82 300.751 87.69 300.859 87.586C300.967 87.482 301.099 87.43 301.255 87.43C301.411 87.43 301.543 87.482 301.651 87.586C301.759 87.69 301.813 87.82 301.813 87.976C301.813 88.132 301.759 88.262 301.651 88.366C301.547 88.47 301.417 88.522 301.261 88.522ZM307.446 93.916L308.346 94.402C308.074 94.782 307.728 95.086 307.308 95.314C306.892 95.542 306.44 95.656 305.952 95.656C305.4 95.656 304.896 95.514 304.44 95.23C303.988 94.946 303.626 94.566 303.354 94.09C303.086 93.61 302.952 93.08 302.952 92.5C302.952 92.06 303.03 91.65 303.186 91.27C303.342 90.886 303.556 90.55 303.828 90.262C304.104 89.97 304.424 89.742 304.788 89.578C305.152 89.414 305.54 89.332 305.952 89.332C306.44 89.332 306.892 89.446 307.308 89.674C307.728 89.902 308.074 90.208 308.346 90.592L307.446 91.078C307.254 90.842 307.026 90.66 306.762 90.532C306.498 90.404 306.228 90.34 305.952 90.34C305.58 90.34 305.242 90.44 304.938 90.64C304.638 90.836 304.4 91.098 304.224 91.426C304.048 91.754 303.96 92.112 303.96 92.5C303.96 92.888 304.048 93.246 304.224 93.574C304.404 93.898 304.644 94.158 304.944 94.354C305.248 94.55 305.584 94.648 305.952 94.648C306.248 94.648 306.526 94.58 306.786 94.444C307.046 94.308 307.266 94.132 307.446 93.916ZM312.737 90.508H311.375L311.369 95.5H310.361L310.367 90.508H309.335V89.5H310.367L310.361 87.616H311.369L311.375 89.5H312.737V90.508ZM313.954 89.5H314.962V95.5H313.954V89.5ZM314.47 88.522C314.31 88.522 314.176 88.47 314.068 88.366C313.96 88.262 313.906 88.132 313.906 87.976C313.906 87.82 313.96 87.69 314.068 87.586C314.176 87.482 314.308 87.43 314.464 87.43C314.62 87.43 314.752 87.482 314.86 87.586C314.968 87.69 315.022 87.82 315.022 87.976C315.022 88.132 314.968 88.262 314.86 88.366C314.756 88.47 314.626 88.522 314.47 88.522ZM319.162 95.656C318.61 95.656 318.106 95.514 317.65 95.23C317.198 94.946 316.836 94.566 316.564 94.09C316.296 93.61 316.162 93.08 316.162 92.5C316.162 92.06 316.24 91.65 316.396 91.27C316.552 90.886 316.766 90.55 317.038 90.262C317.314 89.97 317.634 89.742 317.998 89.578C318.362 89.414 318.75 89.332 319.162 89.332C319.714 89.332 320.216 89.474 320.668 89.758C321.124 90.042 321.486 90.424 321.754 90.904C322.026 91.384 322.162 91.916 322.162 92.5C322.162 92.936 322.084 93.344 321.928 93.724C321.772 94.104 321.556 94.44 321.28 94.732C321.008 95.02 320.69 95.246 320.326 95.41C319.966 95.574 319.578 95.656 319.162 95.656ZM319.162 94.648C319.538 94.648 319.876 94.55 320.176 94.354C320.48 94.154 320.718 93.892 320.89 93.568C321.066 93.24 321.154 92.884 321.154 92.5C321.154 92.108 321.064 91.748 320.884 91.42C320.708 91.092 320.47 90.83 320.17 90.634C319.87 90.438 319.534 90.34 319.162 90.34C318.786 90.34 318.448 90.44 318.148 90.64C317.848 90.836 317.61 91.098 317.434 91.426C317.258 91.754 317.17 92.112 317.17 92.5C317.17 92.9 317.26 93.264 317.44 93.592C317.62 93.916 317.862 94.174 318.166 94.366C318.47 94.554 318.802 94.648 319.162 94.648ZM328.658 91.768V95.5H327.65V91.99C327.65 91.686 327.576 91.41 327.428 91.162C327.28 90.914 327.082 90.718 326.834 90.574C326.586 90.426 326.31 90.352 326.006 90.352C325.706 90.352 325.43 90.426 325.178 90.574C324.93 90.718 324.732 90.914 324.584 91.162C324.436 91.41 324.362 91.686 324.362 91.99V95.5H323.354V89.5H324.362V90.25C324.574 89.97 324.842 89.748 325.166 89.584C325.49 89.416 325.842 89.332 326.222 89.332C326.67 89.332 327.078 89.442 327.446 89.662C327.818 89.878 328.112 90.17 328.328 90.538C328.548 90.906 328.658 91.316 328.658 91.768ZM331.888 95.614C331.564 95.602 331.248 95.542 330.94 95.434C330.636 95.322 330.368 95.172 330.136 94.984C329.908 94.792 329.742 94.572 329.638 94.324L330.502 93.952C330.562 94.088 330.67 94.216 330.826 94.336C330.982 94.456 331.162 94.552 331.366 94.624C331.57 94.696 331.776 94.732 331.984 94.732C332.204 94.732 332.41 94.698 332.602 94.63C332.794 94.562 332.95 94.462 333.07 94.33C333.194 94.194 333.256 94.032 333.256 93.844C333.256 93.644 333.188 93.488 333.052 93.376C332.92 93.26 332.752 93.17 332.548 93.106C332.348 93.038 332.144 92.974 331.936 92.914C331.524 92.81 331.156 92.686 330.832 92.542C330.508 92.394 330.252 92.208 330.064 91.984C329.88 91.756 329.788 91.466 329.788 91.114C329.788 90.742 329.89 90.42 330.094 90.148C330.302 89.876 330.574 89.666 330.91 89.518C331.246 89.37 331.606 89.296 331.99 89.296C332.474 89.296 332.916 89.4 333.316 89.608C333.716 89.816 334.014 90.098 334.21 90.454L333.4 90.928C333.332 90.784 333.228 90.658 333.088 90.55C332.948 90.438 332.788 90.35 332.608 90.286C332.428 90.222 332.244 90.188 332.056 90.184C331.824 90.176 331.606 90.206 331.402 90.274C331.202 90.342 331.04 90.446 330.916 90.586C330.796 90.722 330.736 90.892 330.736 91.096C330.736 91.296 330.8 91.448 330.928 91.552C331.06 91.656 331.23 91.74 331.438 91.804C331.65 91.864 331.88 91.934 332.128 92.014C332.492 92.13 332.832 92.264 333.148 92.416C333.464 92.568 333.718 92.758 333.91 92.986C334.106 93.214 334.202 93.496 334.198 93.832C334.198 94.2 334.088 94.522 333.868 94.798C333.648 95.07 333.362 95.278 333.01 95.422C332.662 95.566 332.288 95.63 331.888 95.614Z" fill="#FAFAFA"/>
<path d="M369.97 79.5303C369.703 79.2641 369.679 78.8474 369.897 78.5538L369.97 78.4697L376.439 72L369.97 65.5303C369.703 65.2641 369.679 64.8474 369.897 64.5538L369.97 64.4697C370.236 64.2034 370.653 64.1792 370.946 64.3971L371.03 64.4697L378.03 71.4697C378.297 71.7359 378.321 72.1526 378.103 72.4462L378.03 72.5303L371.03 79.5303C370.737 79.8232 370.263 79.8232 369.97 79.5303Z" fill="white"/>
</g>
<defs>
<filter id="filter0_d_29222_6438" x="0" y="0" width="430" height="160" filterUnits="userSpaceOnUse" color-interpolation-filters="sRGB">
<feFlood flood-opacity="0" result="BackgroundImageFix"/>
<feColorMatrix in="SourceAlpha" type="matrix" values="0 0 0 0 0 0 0 0 0 0 0 0 0 0 0 0 0 0 127 0" result="hardAlpha"/>
<feOffset dx="4" dy="8"/>
<feGaussianBlur stdDeviation="12"/>
<feComposite in2="hardAlpha" operator="out"/>
<feColorMatrix type="matrix" values="0 0 0 0 0.454902 0 0 0 0 0.513726 0 0 0 0 0.956863 0 0 0 0.1 0"/>
<feBlend mode="normal" in2="BackgroundImageFix" result="effect1_dropShadow_29222_6438"/>
<feBlend mode="normal" in="SourceGraphic" in2="effect1_dropShadow_29222_6438" result="shape"/>
</filter>
<linearGradient id="paint0_linear_29222_6438" x1="211" y1="16" x2="211" y2="128" gradientUnits="userSpaceOnUse">
<stop stop-color="#7E92F8"/>
<stop offset="1" stop-color="#6972F0"/>
</linearGradient>
<linearGradient id="paint1_linear_29222_6438" x1="91.3371" y1="84.6671" x2="59.8661" y2="75.0614" gradientUnits="userSpaceOnUse">
<stop stop-color="#F89300"/>
<stop offset="1" stop-color="#FFBB58"/>
</linearGradient>
</defs>
</svg>
